<svg width="1276" height="679" xmlns="http://www.w3.org/2000/svg"><g><path d="M-18.14028994180262,-57.68271901644766L-80.49751714803278,43.05477127432823L88.04265330545604,-45.96628281287849Z" fill="#ffffe2" stroke="#ffffe2"></path><path d="M-18.14028994180262,-57.68271901644766L88.04265330545604,-45.96628281287849L249.08739902079105,-92.30077916756272Z" fill="#ecf8e1" stroke="#ecf8e1"></path><path d="M88.04265330545604,-45.96628281287849L-80.49751714803278,43.05477127432823L133.42557711526752,48.199371406808496Z" fill="#f3fcdc" stroke="#f3fcdc"></path><path d="M88.04265330545604,-45.96628281287849L133.42557711526752,48.199371406808496L249.08739902079105,-92.30077916756272Z" fill="#e2f4db" stroke="#e2f4db"></path><path d="M249.08739902079105,-92.30077916756272L133.42557711526752,48.199371406808496L240.65190855413675,130.61270870268345Z" fill="#d2f0d3" stroke="#d2f0d3"></path><path d="M249.08739902079105,-92.30077916756272L240.65190855413675,130.61270870268345L325.65631692297757,-65.9746600035578Z" fill="#cdecd5" stroke="#cdecd5"></path><path d="M249.08739902079105,-92.30077916756272L325.65631692297757,-65.9746600035578L703.6000542528927,-51.800453988835216Z" fill="#b0e1df" stroke="#b0e1df"></path><path d="M249.08739902079105,-92.30077916756272L703.6000542528927,-51.800453988835216L1439.6089943032712,-117.00291244313121Z" fill="#95bbda" stroke="#95bbda"></path><path d="M325.65631692297757,-65.9746600035578L240.65190855413675,130.61270870268345L415.2002273965627,23.097501453012228Z" fill="#bce8d3" stroke="#bce8d3"></path><path d="M325.65631692297757,-65.9746600035578L415.2002273965627,23.097501453012228L566.7038150969893,-30.166108841076493Z" fill="#aee0dc" stroke="#aee0dc"></path><path d="M325.65631692297757,-65.9746600035578L566.7038150969893,-30.166108841076493L703.6000542528927,-51.800453988835216Z" fill="#9fd8e0" stroke="#9fd8e0"></path><path d="M566.7038150969893,-30.166108841076493L415.2002273965627,23.097501453012228L488.02850514650345,75.91145703569055Z" fill="#9fdcd9" stroke="#9fdcd9"></path><path d="M566.7038150969893,-30.166108841076493L488.02850514650345,75.91145703569055L630.4757538624108,72.82917997799814Z" fill="#95d5d7" stroke="#95d5d7"></path><path d="M566.7038150969893,-30.166108841076493L630.4757538624108,72.82917997799814L703.6000542528927,-51.800453988835216Z" fill="#9bcdd9" stroke="#9bcdd9"></path><path d="M703.6000542528927,-51.800453988835216L630.4757538624108,72.82917997799814L813.4889901895076,-47.66946435905993Z" fill="#98c5d8" stroke="#98c5d8"></path><path d="M703.6000542528927,-51.800453988835216L813.4889901895076,-47.66946435905993L1439.6089943032712,-117.00291244313121Z" fill="#939fcc" stroke="#939fcc"></path><path d="M813.4889901895076,-47.66946435905993L630.4757538624108,72.82917997799814L867.1037742309272,124.2035601194948Z" fill="#8abfd0" stroke="#8abfd0"></path><path d="M813.4889901895076,-47.66946435905993L867.1037742309272,124.2035601194948L916.5571634564549,45.48260383307934Z" fill="#8bb1cb" stroke="#8bb1cb"></path><path d="M813.4889901895076,-47.66946435905993L916.5571634564549,45.48260383307934L955.4979937244207,-20.991292661055923Z" fill="#94acce" stroke="#94acce"></path><path d="M813.4889901895076,-47.66946435905993L955.4979937244207,-20.991292661055923L1125.4342763498425,-33.46173352561891Z" fill="#93a2cb" stroke="#93a2cb"></path><path d="M813.4889901895076,-47.66946435905993L1125.4342763498425,-33.46173352561891L1439.6089943032712,-117.00291244313121Z" fill="#918ac2" stroke="#918ac2"></path><path d="M955.4979937244207,-20.991292661055923L916.5571634564549,45.48260383307934L1135.1150582637638,110.25335610844195Z" fill="#889cc1" stroke="#889cc1"></path><path d="M955.4979937244207,-20.991292661055923L1135.1150582637638,110.25335610844195L1125.4342763498425,-33.46173352561891Z" fill="#8d92be" stroke="#8d92be"></path><path d="M1125.4342763498425,-33.46173352561891L1135.1150582637638,110.25335610844195L1318.0256403051317,44.44603490643203Z" fill="#8680b4" stroke="#8680b4"></path><path d="M1125.4342763498425,-33.46173352561891L1318.0256403051317,44.44603490643203L1306.1409991700202,-51.818595780059695Z" fill="#8f80b5" stroke="#8f80b5"></path><path d="M1125.4342763498425,-33.46173352561891L1306.1409991700202,-51.818595780059695L1439.6089943032712,-117.00291244313121Z" fill="#8f80b7" stroke="#8f80b7"></path><path d="M1306.1409991700202,-51.818595780059695L1318.0256403051317,44.44603490643203L1365.6910465378314,37.20166685990989Z" fill="#8c80ad" stroke="#8c80ad"></path><path d="M1306.1409991700202,-51.818595780059695L1365.6910465378314,37.20166685990989L1439.6089943032712,-117.00291244313121Z" fill="#8d80b0" stroke="#8d80b0"></path><path d="M1439.6089943032712,-117.00291244313121L1365.6910465378314,37.20166685990989L1466.0266350209713,284.47567826136947Z" fill="#7d80a0" stroke="#7d80a0"></path><path d="M-80.49751714803278,43.05477127432823L-109.52558621764183,348.005036925897L-46.10197529196739,278.95453222095966Z" fill="#bbf3db" stroke="#bbf3db"></path><path d="M-80.49751714803278,43.05477127432823L-46.10197529196739,278.95453222095966L78.62236476503313,198.40284205041826Z" fill="#d0fad5" stroke="#d0fad5"></path><path d="M-80.49751714803278,43.05477127432823L78.62236476503313,198.40284205041826L133.42557711526752,48.199371406808496Z" fill="#e1fcd4" stroke="#e1fcd4"></path><path d="M133.42557711526752,48.199371406808496L78.62236476503313,198.40284205041826L240.65190855413675,130.61270870268345Z" fill="#c6f4cc" stroke="#c6f4cc"></path><path d="M240.65190855413675,130.61270870268345L78.62236476503313,198.40284205041826L219.3055169004947,217.25139289163053Z" fill="#abeccc" stroke="#abeccc"></path><path d="M240.65190855413675,130.61270870268345L219.3055169004947,217.25139289163053L392.2370294574648,187.83880546689034Z" fill="#99e5ca" stroke="#99e5ca"></path><path d="M240.65190855413675,130.61270870268345L392.2370294574648,187.83880546689034L415.2002273965627,23.097501453012228Z" fill="#a4e6cb" stroke="#a4e6cb"></path><path d="M415.2002273965627,23.097501453012228L392.2370294574648,187.83880546689034L488.02850514650345,75.91145703569055Z" fill="#99e0cf" stroke="#99e0cf"></path><path d="M488.02850514650345,75.91145703569055L392.2370294574648,187.83880546689034L578.9261440280825,274.862382626161Z" fill="#73d6d0" stroke="#73d6d0"></path><path d="M488.02850514650345,75.91145703569055L578.9261440280825,274.862382626161L630.4757538624108,72.82917997799814Z" fill="#7cd4cd" stroke="#7cd4cd"></path><path d="M630.4757538624108,72.82917997799814L578.9261440280825,274.862382626161L665.0432183314115,226.33948381058872Z" fill="#65c6cf" stroke="#65c6cf"></path><path d="M630.4757538624108,72.82917997799814L665.0432183314115,226.33948381058872L817.382032899186,219.77629367262125Z" fill="#69c1cc" stroke="#69c1cc"></path><path d="M630.4757538624108,72.82917997799814L817.382032899186,219.77629367262125L867.1037742309272,124.2035601194948Z" fill="#75bec7" stroke="#75bec7"></path><path d="M867.1037742309272,124.2035601194948L817.382032899186,219.77629367262125L931.4719084929675,182.73975821211934Z" fill="#64aac3" stroke="#64aac3"></path><path d="M867.1037742309272,124.2035601194948L931.4719084929675,182.73975821211934L916.5571634564549,45.48260383307934Z" fill="#79abc0" stroke="#79abc0"></path><path d="M916.5571634564549,45.48260383307934L931.4719084929675,182.73975821211934L1099.0513075143099,170.95062059350312Z" fill="#749fb9" stroke="#749fb9"></path><path d="M916.5571634564549,45.48260383307934L1099.0513075143099,170.95062059350312L1135.1150582637638,110.25335610844195Z" fill="#7895b7" stroke="#7895b7"></path><path d="M1135.1150582637638,110.25335610844195L1099.0513075143099,170.95062059350312L1332.3378979973495,237.47226057574153Z" fill="#617cac" stroke="#617cac"></path><path d="M1135.1150582637638,110.25335610844195L1332.3378979973495,237.47226057574153L1318.0256403051317,44.44603490643203Z" fill="#7080a5" stroke="#7080a5"></path><path d="M1318.0256403051317,44.44603490643203L1332.3378979973495,237.47226057574153L1365.6910465378314,37.20166685990989Z" fill="#7580a2" stroke="#7580a2"></path><path d="M1365.6910465378314,37.20166685990989L1332.3378979973495,237.47226057574153L1466.0266350209713,284.47567826136947Z" fill="#58799f" stroke="#58799f"></path><path d="M-46.10197529196739,278.95453222095966L-109.52558621764183,348.005036925897L118.09641829691827,431.9850007351488Z" fill="#9fd8d7" stroke="#9fd8d7"></path><path d="M-46.10197529196739,278.95453222095966L118.09641829691827,431.9850007351488L166.99844051152468,371.2381953187287Z" fill="#90d1d3" stroke="#90d1d3"></path><path d="M-46.10197529196739,278.95453222095966L166.99844051152468,371.2381953187287L78.62236476503313,198.40284205041826Z" fill="#99e5d8" stroke="#99e5d8"></path><path d="M78.62236476503313,198.40284205041826L166.99844051152468,371.2381953187287L219.3055169004947,217.25139289163053Z" fill="#8ee3d3" stroke="#8ee3d3"></path><path d="M219.3055169004947,217.25139289163053L166.99844051152468,371.2381953187287L377.5958522502333,401.8882157932967Z" fill="#72cccc" stroke="#72cccc"></path><path d="M219.3055169004947,217.25139289163053L377.5958522502333,401.8882157932967L392.2370294574648,187.83880546689034Z" fill="#6ad5d2" stroke="#6ad5d2"></path><path d="M392.2370294574648,187.83880546689034L377.5958522502333,401.8882157932967L578.9261440280825,274.862382626161Z" fill="#51c8d4" stroke="#51c8d4"></path><path d="M578.9261440280825,274.862382626161L377.5958522502333,401.8882157932967L572.3864013981074,361.1227570474148Z" fill="#40b6d3" stroke="#40b6d3"></path><path d="M578.9261440280825,274.862382626161L572.3864013981074,361.1227570474148L680.2249980624765,325.9949343279004Z" fill="#3fb1d2" stroke="#3fb1d2"></path><path d="M578.9261440280825,274.862382626161L680.2249980624765,325.9949343279004L665.0432183314115,226.33948381058872Z" fill="#41b9d4" stroke="#41b9d4"></path><path d="M665.0432183314115,226.33948381058872L680.2249980624765,325.9949343279004L817.382032899186,219.77629367262125Z" fill="#45b3d1" stroke="#45b3d1"></path><path d="M817.382032899186,219.77629367262125L680.2249980624765,325.9949343279004L790.1963596232235,392.0119925122708Z" fill="#39a3cf" stroke="#39a3cf"></path><path d="M817.382032899186,219.77629367262125L790.1963596232235,392.0119925122708L1014.8558051325381,382.0690153632313Z" fill="#368ec6" stroke="#368ec6"></path><path d="M817.382032899186,219.77629367262125L1014.8558051325381,382.0690153632313L931.4719084929675,182.73975821211934Z" fill="#3f97c6" stroke="#3f97c6"></path><path d="M931.4719084929675,182.73975821211934L1014.8558051325381,382.0690153632313L1099.0513075143099,170.95062059350312Z" fill="#448bbe" stroke="#448bbe"></path><path d="M1099.0513075143099,170.95062059350312L1014.8558051325381,382.0690153632313L1184.0499275363982,368.5496926959604Z" fill="#3573b8" stroke="#3573b8"></path><path d="M1099.0513075143099,170.95062059350312L1184.0499275363982,368.5496926959604L1332.3378979973495,237.47226057574153Z" fill="#3c6fb1" stroke="#3c6fb1"></path><path d="M1332.3378979973495,237.47226057574153L1184.0499275363982,368.5496926959604L1272.623228598386,366.8700242880732Z" fill="#3160ab" stroke="#3160ab"></path><path d="M1332.3378979973495,237.47226057574153L1272.623228598386,366.8700242880732L1410.2598360646516,412.16219287365675Z" fill="#2f5ca5" stroke="#2f5ca5"></path><path d="M1332.3378979973495,237.47226057574153L1410.2598360646516,412.16219287365675L1466.0266350209713,284.47567826136947Z" fill="#3163a2" stroke="#3163a2"></path><path d="M1466.0266350209713,284.47567826136947L1410.2598360646516,412.16219287365675L1441.843193359673,494.29133498109877Z" fill="#284e9b" stroke="#284e9b"></path><path d="M1466.0266350209713,284.47567826136947L1441.843193359673,494.29133498109877L1441.7806118354201,723.1128548271954Z" fill="#242d8a" stroke="#242d8a"></path><path d="M-109.52558621764183,348.005036925897L-128.52689777500927,872.2241007350385L-105.61275210231543,724.4488094095141Z" fill="#9380b3" stroke="#9380b3"></path><path d="M-109.52558621764183,348.005036925897L-105.61275210231543,724.4488094095141L-94.77072374895215,583.296260945499Z" fill="#959cc2" stroke="#959cc2"></path><path d="M-109.52558621764183,348.005036925897L-94.77072374895215,583.296260945499L76.01504003629088,494.1941172257066Z" fill="#98b5cb" stroke="#98b5cb"></path><path d="M-109.52558621764183,348.005036925897L76.01504003629088,494.1941172257066L118.09641829691827,431.9850007351488Z" fill="#94c4d0" stroke="#94c4d0"></path><path d="M118.09641829691827,431.9850007351488L76.01504003629088,494.1941172257066L216.6547925490886,547.6453091204166Z" fill="#7ea6c0" stroke="#7ea6c0"></path><path d="M118.09641829691827,431.9850007351488L216.6547925490886,547.6453091204166L166.99844051152468,371.2381953187287Z" fill="#79b1c5" stroke="#79b1c5"></path><path d="M166.99844051152468,371.2381953187287L216.6547925490886,547.6453091204166L377.5958522502333,401.8882157932967Z" fill="#6aaec3" stroke="#6aaec3"></path><path d="M377.5958522502333,401.8882157932967L216.6547925490886,547.6453091204166L415.15289450995624,553.9761608373374Z" fill="#5895bb" stroke="#5895bb"></path><path d="M377.5958522502333,401.8882157932967L415.15289450995624,553.9761608373374L572.3864013981074,361.1227570474148Z" fill="#44a0c9" stroke="#44a0c9"></path><path d="M572.3864013981074,361.1227570474148L415.15289450995624,553.9761608373374L565.9616090264171,584.5583468209952Z" fill="#3887c1" stroke="#3887c1"></path><path d="M572.3864013981074,361.1227570474148L565.9616090264171,584.5583468209952L706.1044641584158,484.02894859202206Z" fill="#3485c2" stroke="#3485c2"></path><path d="M572.3864013981074,361.1227570474148L706.1044641584158,484.02894859202206L680.2249980624765,325.9949343279004Z" fill="#369bcd" stroke="#369bcd"></path><path d="M680.2249980624765,325.9949343279004L706.1044641584158,484.02894859202206L790.1963596232235,392.0119925122708Z" fill="#3291cb" stroke="#3291cb"></path><path d="M790.1963596232235,392.0119925122708L706.1044641584158,484.02894859202206L854.8994197044522,520.0684288144112Z" fill="#2f76bf" stroke="#2f76bf"></path><path d="M790.1963596232235,392.0119925122708L854.8994197044522,520.0684288144112L1014.8558051325381,382.0690153632313Z" fill="#2e71bd" stroke="#2e71bd"></path><path d="M1014.8558051325381,382.0690153632313L854.8994197044522,520.0684288144112L981.8902977369726,566.053630169481Z" fill="#2b55b0" stroke="#2b55b0"></path><path d="M1014.8558051325381,382.0690153632313L981.8902977369726,566.053630169481L1171.3430885598063,523.521875180304Z" fill="#2a46a8" stroke="#2a46a8"></path><path d="M1014.8558051325381,382.0690153632313L1171.3430885598063,523.521875180304L1184.0499275363982,368.5496926959604Z" fill="#2b51ae" stroke="#2b51ae"></path><path d="M1184.0499275363982,368.5496926959604L1171.3430885598063,523.521875180304L1269.8903420101851,517.6323046535254Z" fill="#2837a1" stroke="#2837a1"></path><path d="M1184.0499275363982,368.5496926959604L1269.8903420101851,517.6323046535254L1272.623228598386,366.8700242880732Z" fill="#2948a7" stroke="#2948a7"></path><path d="M1272.623228598386,366.8700242880732L1269.8903420101851,517.6323046535254L1410.2598360646516,412.16219287365675Z" fill="#28449f" stroke="#28449f"></path><path d="M1410.2598360646516,412.16219287365675L1269.8903420101851,517.6323046535254L1441.843193359673,494.29133498109877Z" fill="#263694" stroke="#263694"></path><path d="M-94.77072374895215,583.296260945499L-105.61275210231543,724.4488094095141L39.76943646557629,723.5483367182314Z" fill="#9280ac" stroke="#9280ac"></path><path d="M-94.77072374895215,583.296260945499L39.76943646557629,723.5483367182314L76.01504003629088,494.1941172257066Z" fill="#938cb5" stroke="#938cb5"></path><path d="M76.01504003629088,494.1941172257066L39.76943646557629,723.5483367182314L166.7228939384222,656.597200781107Z" fill="#827dad" stroke="#827dad"></path><path d="M76.01504003629088,494.1941172257066L166.7228939384222,656.597200781107L216.6547925490886,547.6453091204166Z" fill="#798cb4" stroke="#798cb4"></path><path d="M216.6547925490886,547.6453091204166L166.7228939384222,656.597200781107L320.4554555006325,700.5493721924722Z" fill="#6870a5" stroke="#6870a5"></path><path d="M216.6547925490886,547.6453091204166L320.4554555006325,700.5493721924722L415.15289450995624,553.9761608373374Z" fill="#5a75ab" stroke="#5a75ab"></path><path d="M415.15289450995624,553.9761608373374L320.4554555006325,700.5493721924722L578.0265254247934,634.0451965481043Z" fill="#4263aa" stroke="#4263aa"></path><path d="M415.15289450995624,553.9761608373374L578.0265254247934,634.0451965481043L565.9616090264171,584.5583468209952Z" fill="#356ab3" stroke="#356ab3"></path><path d="M565.9616090264171,584.5583468209952L578.0265254247934,634.0451965481043L706.1044641584158,484.02894859202206Z" fill="#3267b4" stroke="#3267b4"></path><path d="M706.1044641584158,484.02894859202206L578.0265254247934,634.0451965481043L652.1421438921243,699.8733381461352Z" fill="#2f57ad" stroke="#2f57ad"></path><path d="M706.1044641584158,484.02894859202206L652.1421438921243,699.8733381461352L780.5403124820441,684.0304526500404Z" fill="#2c4aa9" stroke="#2c4aa9"></path><path d="M706.1044641584158,484.02894859202206L780.5403124820441,684.0304526500404L854.8994197044522,520.0684288144112Z" fill="#2c56b0" stroke="#2c56b0"></path><path d="M854.8994197044522,520.0684288144112L780.5403124820441,684.0304526500404L964.9840363394469,640.8107505273074Z" fill="#2938a2" stroke="#2938a2"></path><path d="M854.8994197044522,520.0684288144112L964.9840363394469,640.8107505273074L981.8902977369726,566.053630169481Z" fill="#293ca3" stroke="#293ca3"></path><path d="M981.8902977369726,566.053630169481L964.9840363394469,640.8107505273074L1115.0597089715302,714.033305067569Z" fill="#261a93" stroke="#261a93"></path><path d="M981.8902977369726,566.053630169481L1115.0597089715302,714.033305067569L1171.3430885598063,523.521875180304Z" fill="#261c94" stroke="#261c94"></path><path d="M1171.3430885598063,523.521875180304L1115.0597089715302,714.033305067569L1251.5247369278222,726.5399255231023Z" fill="#230386" stroke="#230386"></path><path d="M1171.3430885598063,523.521875180304L1251.5247369278222,726.5399255231023L1269.8903420101851,517.6323046535254Z" fill="#24108c" stroke="#24108c"></path><path d="M1269.8903420101851,517.6323046535254L1251.5247369278222,726.5399255231023L1441.7806118354201,723.1128548271954Z" fill="#21007b" stroke="#21007b"></path><path d="M1269.8903420101851,517.6323046535254L1441.7806118354201,723.1128548271954L1441.843193359673,494.29133498109877Z" fill="#231483" stroke="#231483"></path><path d="M-105.61275210231543,724.4488094095141L-128.52689777500927,872.2241007350385L39.76943646557629,723.5483367182314Z" fill="#8f809d" stroke="#8f809d"></path><path d="M39.76943646557629,723.5483367182314L-128.52689777500927,872.2241007350385L60.862531727179885,879.0210601687431Z" fill="#8d8092" stroke="#8d8092"></path><path d="M39.76943646557629,723.5483367182314L60.862531727179885,879.0210601687431L221.1432616878301,798.9688687585294Z" fill="#7a7891" stroke="#7a7891"></path><path d="M39.76943646557629,723.5483367182314L221.1432616878301,798.9688687585294L166.7228939384222,656.597200781107Z" fill="#76759b" stroke="#76759b"></path><path d="M166.7228939384222,656.597200781107L221.1432616878301,798.9688687585294L320.4554555006325,700.5493721924722Z" fill="#656f97" stroke="#656f97"></path><path d="M320.4554555006325,700.5493721924722L221.1432616878301,798.9688687585294L386.0089118219912,869.1507831215858Z" fill="#55698d" stroke="#55698d"></path><path d="M320.4554555006325,700.5493721924722L386.0089118219912,869.1507831215858L544.8865275364369,857.2846407350153Z" fill="#40628d" stroke="#40628d"></path><path d="M320.4554555006325,700.5493721924722L544.8865275364369,857.2846407350153L578.0265254247934,634.0451965481043Z" fill="#375d9c" stroke="#375d9c"></path><path d="M578.0265254247934,634.0451965481043L544.8865275364369,857.2846407350153L652.1421438921243,699.8733381461352Z" fill="#2e529b" stroke="#2e529b"></path><path d="M652.1421438921243,699.8733381461352L544.8865275364369,857.2846407350153L690.474505322054,771.5760058164597Z" fill="#2b4e92" stroke="#2b4e92"></path><path d="M652.1421438921243,699.8733381461352L690.474505322054,771.5760058164597L780.5403124820441,684.0304526500404Z" fill="#2a469a" stroke="#2a469a"></path><path d="M780.5403124820441,684.0304526500404L690.474505322054,771.5760058164597L816.8198699411005,852.636376619339Z" fill="#264090" stroke="#264090"></path><path d="M780.5403124820441,684.0304526500404L816.8198699411005,852.636376619339L964.9840363394469,640.8107505273074Z" fill="#263391" stroke="#263391"></path><path d="M964.9840363394469,640.8107505273074L816.8198699411005,852.636376619339L1024.0570601820946,845.813858108595Z" fill="#232783" stroke="#232783"></path><path d="M964.9840363394469,640.8107505273074L1024.0570601820946,845.813858108595L1115.0597089715302,714.033305067569Z" fill="#231883" stroke="#231883"></path><path d="M1115.0597089715302,714.033305067569L1024.0570601820946,845.813858108595L1082.2946949116886,846.4886901061982Z" fill="#211276" stroke="#211276"></path><path d="M1115.0597089715302,714.033305067569L1082.2946949116886,846.4886901061982L1251.5247369278222,726.5399255231023Z" fill="#200777" stroke="#200777"></path><path d="M1251.5247369278222,726.5399255231023L1082.2946949116886,846.4886901061982L1279.5705433096737,841.040839701891Z" fill="#1f006c" stroke="#1f006c"></path><path d="M1251.5247369278222,726.5399255231023L1279.5705433096737,841.040839701891L1441.7806118354201,723.1128548271954Z" fill="#1e006a" stroke="#1e006a"></path><path d="M1441.7806118354201,723.1128548271954L1279.5705433096737,841.040839701891L1382.6385186240077,861.9647984951735Z" fill="#1c0060" stroke="#1c0060"></path><path d="M60.862531727179885,879.0210601687431L1382.6385186240077,861.9647984951735L386.0089118219912,869.1507831215858Z" fill="#295184" stroke="#295184"></path><path d="M60.862531727179885,879.0210601687431L386.0089118219912,869.1507831215858L221.1432616878301,798.9688687585294Z" fill="#647083" stroke="#647083"></path><path d="M386.0089118219912,869.1507831215858L1382.6385186240077,861.9647984951735L816.8198699411005,852.636376619339Z" fill="#21327b" stroke="#21327b"></path><path d="M386.0089118219912,869.1507831215858L816.8198699411005,852.636376619339L544.8865275364369,857.2846407350153Z" fill="#2a5387" stroke="#2a5387"></path><path d="M544.8865275364369,857.2846407350153L816.8198699411005,852.636376619339L690.474505322054,771.5760058164597Z" fill="#274989" stroke="#274989"></path><path d="M816.8198699411005,852.636376619339L1382.6385186240077,861.9647984951735L1082.2946949116886,846.4886901061982Z" fill="#1f106c" stroke="#1f106c"></path><path d="M816.8198699411005,852.636376619339L1082.2946949116886,846.4886901061982L1024.0570601820946,845.813858108595Z" fill="#202175" stroke="#202175"></path><path d="M1082.2946949116886,846.4886901061982L1382.6385186240077,861.9647984951735L1279.5705433096737,841.040839701891Z" fill="#1d0062" stroke="#1d0062"></path></g></svg>